<?xml version="1.0" encoding="utf-8"?>
<!-- Generator: Adobe Illustrator 27.5.0, SVG Export Plug-In . SVG Version: 6.00 Build 0)  -->
<svg version="1.1" id="Layer_1" xmlns="http://www.w3.org/2000/svg" xmlns:xlink="http://www.w3.org/1999/xlink" x="0px" y="0px"
	 viewBox="0 0 2408.953 2000" style="enable-background:new 0 0 2408.953 2000;" xml:space="preserve">
<g>
	<g>
		<g>
			
				<rect x="0" transform="matrix(-1 -1.224647e-16 1.224647e-16 -1 2408.9534 2000)" style="fill:#FFFFFF;" width="2408.953" height="2000"/>
			<linearGradient id="SVGID_1_" gradientUnits="userSpaceOnUse" x1="185.9221" y1="981.6749" x2="2216.8147" y2="981.6749">
				<stop  offset="0" style="stop-color:#BCE3F1"/>
				<stop  offset="1" style="stop-color:#D0F7FF"/>
			</linearGradient>
			<path style="fill:url(#SVGID_1_);" d="M444.19,1821.952c-152.765-25.869-400.625-262.013-153.63-703.463
				C466.064,804.813,48.686,527.53,443.564,236.393c325.519-240,1533.694-71.712,1729.035,659.437
				c165.336,618.844-186.255,933.306-186.255,933.306L444.19,1821.952z"/>
			<g>
				<g>
					<path style="opacity:0.5;fill:#EAF7FB;" d="M1487.77,1580.016c-5.018-2.319-10.986-3.671-17.335-3.746
						c-5.889-9.797-19.618-16.336-35.221-16.336c-9.364,0-18.243,2.428-25.089,6.591c-7.619-12.174-25.119-20.682-44.947-20.682
						c-13.025,0-25.379,3.595-34.536,9.959c-1.311-0.145-2.635-0.218-3.961-0.218c-14.189,0-25.731,8.07-25.731,17.99
						c0,2.228,0.59,4.406,1.713,6.443H1487.77z"/>
				</g>
			</g>
			<path style="fill:#6B8BF2;" d="M2226.036,1842.859H178.253c-6.803,0-12.319-5.515-12.319-12.319v-2.811
				c0-6.803,5.515-12.319,12.319-12.319h2047.783c6.803,0,12.319,5.515,12.319,12.319v2.811
				C2238.354,1837.344,2232.839,1842.859,2226.036,1842.859z"/>
		</g>
	</g>
	<g>
		<g>
			<g>
				<path style="fill:#F7A491;" d="M1470.86,1121.052l28.509,80.524c0,0,25.152-52.308,41.009-112.536
					c24.951,8.897,41.096,18.95,60.8,36.085c-23.029,55.941-66.448,147.571-100.737,152.611
					c-26.685,3.923-53.912-127.236-53.912-127.236L1470.86,1121.052z"/>
				<g>
					<path style="fill:#F47458;" d="M1432.372,1112.871l-9.202-0.315l0.384-11.207l9.202,0.315c4.349,0.149,8.06-4.757,8.271-10.938
						l0.383-11.207c0.212-6.18-3.154-11.328-7.504-11.478l-11.832-0.404l0.384-11.208l11.831,0.405
						c8.7,0.297,15.433,10.594,15.01,22.954l-0.384,11.208C1448.492,1103.357,1441.072,1113.169,1432.372,1112.871z"/>
				</g>
				<path style="fill:#F47458;" d="M1364.35,1055.013l-1.756,51.313c-0.404,11.787,8.824,21.668,20.612,22.072l18.289,0.626
					c11.788,0.404,21.669-8.824,22.072-20.61l1.979-57.821l-60.973-2.087L1364.35,1055.013z"/>
				<path style="fill:#F7A491;" d="M1457.459,1074.495c-3.331-3.499-11.429-7.302-15.516-3.587
					c-4.089,3.715-2.425,9.788-4.73,12.796c-2.067,2.697-4.405,7.42-5.781,11.75c-0.385,1.208-3.083,10.41-3.891,13.036
					c-0.806,2.627,18.989,42.011,18.989,42.011l28.865-14.764C1475.394,1135.736,1460.79,1077.993,1457.459,1074.495z"/>
				<path style="fill:#FAE0B2;" d="M1557.107,1041.027c0,0-20.502,54.352-25.746,71.516c-5.244,17.164-15.734,41.956-15.734,41.956
					l56.737,36.712l40.048-84.866L1557.107,1041.027z"/>
			</g>
			<g>
				<g>
					<polygon style="fill:#3C8F7C;" points="1774.585,1816.009 1660.866,1499.716 1639.223,1507.859 1749.884,1816.01 					"/>
				</g>
				<path style="fill:#3C8F7C;" d="M1424.453,1447.437h310.623c26.615,0,48.188,21.576,48.188,48.189v14.113
					c0,26.613-21.574,48.188-48.188,48.188h-310.623c-26.615,0-48.189-21.575-48.189-48.188v-14.113
					C1376.263,1469.013,1397.838,1447.437,1424.453,1447.437z"/>
				<g>
					<polygon style="fill:#3C8F7C;" points="1955.084,1816.01 1840.749,1497.952 1819.106,1506.089 1930.558,1816.009 					"/>
				</g>
				<g>
					<polygon style="fill:#3C8F7C;" points="1497.51,1816.027 1606.743,1512.586 1585.104,1504.441 1471.013,1815.99 					"/>
				</g>
				<path style="fill:#50BFA5;" d="M1664.798,1456.664h42.909l111.961-308.308c4.382-11.621,15.278-19.335,27.486-19.458
					l134.223-1.925c20.666-0.21,40.05,29.321,28.607,67.226l-85.669,252.982l0.045,0.001l-23.623,75.871l-251.625,2.646
					L1664.798,1456.664z"/>
				<path style="fill:#3C8F7C;" d="M1618.074,1459.524l218.363-0.476l100.814-291.156c6.888-19.871-7.691-40.676-28.358-40.467
					l-145.615,1.474c-12.208,0.123-23.103,7.837-27.484,19.458L1618.074,1459.524z"/>
				<path style="fill:#50BFA5;" d="M1516.058,1447.51c0,0,123.109,7.687,164.216,7.723c42.669,0.037,158.224-16.211,158.224-16.211
					c28.676,0,64.171,30.064,64.171,56.678v14.113c0,26.614-23.247,48.188-51.923,48.188h-334.689
					c-28.675,0-51.922-21.575-51.922-48.188V1495.7C1464.136,1469.086,1487.383,1447.51,1516.058,1447.51z"/>
				<g>
					<path style="fill:#F7A491;" d="M1484.89,1691.87c-6.034,27.196-8.405,77.658-7.171,83.531
						c0.358,1.701-1.463,8.633-2.386,10.196c-35.235,19.39-70.597,11.115-99.357,0.35c19.885-6.88,46.252-15.761,50.235-18.327
						c10.383-6.689,5.229-41.031,3.505-84.533C1443.851,1698.668,1464.85,1684.949,1484.89,1691.87z"/>
					<path style="fill:#355389;" d="M1477.653,1774.865c2.059,13.27-1.208,40.753-3.922,41.162
						c-3.246,0.491-114.963,5.007-130.955-6.575c-9.864-7.144,8.768-14.527,33.201-23.505
						C1404.737,1796.711,1475.955,1783.662,1477.653,1774.865z"/>
					<path style="fill:#466EB6;" d="M1649.578,1316.837l-2.585,34.509c0,0-241.321,33.595-245.2,77.828
						c-3.88,44.232,22.202,313.719,22.202,313.719l59.157,3.764c0,0,30.569-145.895,27.708-196.434
						c-2.599-45.935-12.845-70.921-12.845-70.921s255.324-8.155,271.823-15.646c16.498-7.49,32.371-32.272,15.885-98.151
						c-16.486-65.878-25.214-82.818-25.214-82.818L1649.578,1316.837z"/>
					<path style="fill:#13375B;" d="M1495.056,950.171c-5.688-23.776-11.262-47.703,3.737-73.823
						c12.139-21.138,33.123-33.301,57.408-35.95c68.811-7.506,54.104,51.549,150.278,64.333c29.885,3.972,57.648,7.79,82.598,21.454
						c45.053,24.672,46.917,95.515,32.181,128.723c-70.508,158.893-252.745,23.85-274.925-7.237
						C1529.83,1024.544,1498.719,965.477,1495.056,950.171z"/>
					<path style="fill:#F7CC7F;" d="M1543.282,1089.658c2.178-20.557,13.825-49.108,13.825-49.108
						c2.525-20.7,69.081-27.734,86.297-24.316c61.037,19.242,106.073,190.175,132.245,295.579l-127.239,20.166
						c0,0-42.705-138.876-84.127-159.296C1535.436,1158.463,1540.05,1120.15,1543.282,1089.658z"/>
					<path style="fill:#F7A491;" d="M1585.868,960.818c0,0,0.272,1.42,0.761,3.835c2.343,11.588,9.658,46.092,15.751,56.659
						c7.363,12.77-16.644,70.24-47.994,65.27c-9.333-1.479,5.298-30.89,2.146-45.129c-1.782-8.052-7.19-33.126-11.554-53.396
						c-3.353-15.575-6.089-28.313-6.089-28.313L1585.868,960.818z"/>
					<path style="fill:#F47458;" d="M1586.629,964.653c-0.489-2.415-0.761-3.835-0.761-3.835l-46.979-1.075
						c0,0,2.736,12.738,6.089,28.313c1.173,5.45,2.421,11.247,3.655,16.967c7.253-0.979,14.833-4.215,22.43-10.318
						c8.285-6.653,13.714-14.648,16.991-23.184C1587.475,968.798,1586.992,966.45,1586.629,964.653z"/>
					<path style="fill:#F7A491;" d="M1557.61,858.172c0,0,19.159,2.443,33.038,18.913c13.88,16.47,28.84,67.403-5.64,95.095
						c-34.48,27.692-68.547-3.653-73.599-36.888C1506.359,902.058,1507.38,856.972,1557.61,858.172z"/>
					<path style="fill:#F7A491;" d="M1500.375,923.935c4.116,7.34,11.025,11.405,15.431,9.078
						c4.406-2.326,4.641-10.163,0.525-17.503c-4.115-7.341-11.023-11.404-15.429-9.078
						C1496.495,908.758,1496.26,916.594,1500.375,923.935z"/>
					<path style="fill:#13375B;" d="M1551.773,857.402c0,0,29.582,48.436,50.745,50.674c21.162,2.238,23.941,27.975,23.941,27.975
						s-7.566-59.304-28.517-70.74C1576.992,853.873,1551.773,857.402,1551.773,857.402z"/>
					<path style="fill:#F7A491;" d="M1595.598,919.616c-1.722,8.601,1.74,16.489,7.731,17.618
						c5.991,1.129,12.244-4.929,13.965-13.53c1.721-8.601-1.741-16.49-7.732-17.618
						C1603.571,904.957,1597.319,911.014,1595.598,919.616z"/>
				</g>
				<path style="fill:#F7A491;" d="M1366.564,1646.362c-20.608,24.322-32.495,49.276-34.128,52.409
					c-0.784,1.506-1.087,10.174-1.861,11.755c-32.078,21.104-66.06,15.251-93.957,6.557c18.365-7.95,43.938-17.16,46.334-21.005
					c3.816-6.123,21.311-28.33,39.348-68.241C1336.671,1642.14,1347.162,1640.87,1366.564,1646.362z"/>
				<path style="fill:#355389;" d="M1332.106,1699.936c2.802,12.806,1.679,38.805-0.863,39.373
					c-3.038,0.681-110.728,16.587-124.514,2.761c-8.291-8.314,7.356-14.709,29.889-24.988
					C1264.515,1725.776,1331.068,1708.615,1332.106,1699.936z"/>
				<path style="fill:#355389;" d="M1309.069,1643.515l43.707,25.831c0,0,119.415-179.435,128.823-220.759
					c8.583-37.701,41.836-54.708,41.836-54.708l123.425-42.351c0,0-202.875-8.024-229.622,8.025
					C1383.258,1379.941,1309.069,1643.515,1309.069,1643.515z"/>
			</g>
		</g>
		<g>
			<g>
				<polygon style="fill:#3C8F7C;" points="595.148,1816.009 707.499,1499.036 685.856,1490.783 570.552,1816.006 				"/>
			</g>
			<g>
				<polygon style="fill:#3C8F7C;" points="1026.09,1816.265 907.699,1496.574 886.059,1504.493 1001.721,1816.08 				"/>
			</g>
			<path style="fill:#3C8F7C;" d="M966.576,1438.504H668.37c-26.149,0-47.347,21.198-47.347,47.347v15.797
				c0,26.148,21.198,47.346,47.347,47.346h298.206c26.148,0,47.346-21.198,47.346-47.346v-15.797
				C1013.923,1459.702,992.725,1438.504,966.576,1438.504z"/>
			<g>
				<polygon style="fill:#3C8F7C;" points="937.576,1816.009 819.185,1495.507 797.545,1503.446 913.004,1816.009 				"/>
			</g>
			<path style="fill:#50BFA5;" d="M739.49,1447.73h-42.91l-111.96-308.308c-4.382-11.621-15.277-19.335-27.485-19.458
				l-134.224-1.925c-20.665-0.21-40.049,29.321-28.607,67.226l85.668,252.982h-0.043l23.623,75.872l251.625,2.646L739.49,1447.73z"
				/>
			<path style="fill:#3C8F7C;" d="M786.214,1450.59l-218.364-0.476l-100.813-291.158c-6.887-19.87,7.692-40.676,28.357-40.467
				l145.615,1.474c12.208,0.123,23.104,7.837,27.485,19.458L786.214,1450.59z"/>
			<path style="fill:#13375B;" d="M944.373,1344.316c-1.43-2.682-4.673-18.357-10.114-18.387
				c-5.441-0.029-23.499,21.783-23.499,21.783L944.373,1344.316z"/>
			<path style="fill:#F47458;" d="M625.592,1182.135c78.241,32.195,103.426-38.149,101.464-36.289
				c1.49-1.595,13.266-6.737,20.792-10.426c31.355-15.37,30.42-69.606,29.707-105.571c44.99-27.388,56.269-79.864,25.412-111.919
				c9.494-35.643,11.508-58.072-20.329-76.139c-24.104-42.022-91.641-27.766-124.419,5.197
				c-16.616,16.71-26.235,41.196-25.977,65.603c-38.568,15.964-58.747,58.487-49.976,101.379
				C530.228,1056.811,545.752,1149.283,625.592,1182.135z"/>
			<path style="fill:#F79C8D;" d="M761.112,1038.047c28.08,54.411,87.701,116.127,87.701,116.127l133.748-44.121
				c0,0,6.187-13.165,13.375-14.667c7.188-1.502,27.052-7.224,27.223-2.726c0.171,4.498-12.606,5.237-14.624,8.18
				c-2.019,2.943,12.759,1.299,18.716,1.073c5.957-0.227,28.661-20.679,33.673-23.326c2.702-1.427,1.386,2.174-1.375,6.476
				c3.891-3.95,8.172-7.519,10.721-7.24c5.563,0.608-12.4,21.355-12.4,21.355s14.289-17.609,17.601-14.661
				c0.835,0.743,0.948,0.956-1.363,4.626c0,0-20.513,35.615-43.413,38.531c-22.901,2.917-28.335,5.039-35.739,6.447
				c-2.153,0.409-139.079,84.326-153.506,80.453c-22.65-6.081-98.691-88.771-133.097-137.879
				C724.651,1057.041,737.886,1050.787,761.112,1038.047z"/>
			<path style="fill:#822344;" d="M819.279,1113.974c0,0-23.6,46.485-40.764,52.684l-78.439-95.645c0,0-0.43-47.007,23.322-46.933
				c23.753,0.074,26.697,1.837,31.861,5.348C760.423,1032.939,819.279,1113.974,819.279,1113.974z"/>
			<path style="fill:#A5375C;" d="M775.579,1065.554c-9.459-17.493-19.2-31.375-19.2-31.375
				c-9.809-17.497-35.152-26.347-35.152-26.347s-8.477,0.173-18.211,0.652c-0.603,1.621-1.218,2.778-1.836,3.243
				c-3.658,2.753-24.622-0.801-38.164,8.424c-41.166,35.406-33.55,194.233-29.322,268.083c0.434,7.573-0.275,14.372,0.057,19.93
				l113.311,0.483c0,0,0.05-1.863,0.284-5.097c1.731-23.985,10.545-126.589,35.293-155.7
				C802.196,1124.844,789.609,1091.503,775.579,1065.554z"/>
			<path style="fill:#F79C8D;" d="M1009.96,1774.779c-0.479-2.657-12.433-44.451-13.174-66.99
				c-1.077-32.736,3.256-351.702-31.271-364.142c-9.101-3.28-52.546-7.867-70.567-7.337
				c-31.059,34.807-17.118,59.769-23.169,108.142c21.794-8.486,38.388-9.448,38.009-1.277
				c-2.782,60.087,48.795,262.112,47.019,267.125c-7.905,22.328-25.441,32.777-25.441,32.777s82.688,78.581,87.68,69.503
				C1024.038,1803.502,1015.358,1804.719,1009.96,1774.779z"/>
			<path style="fill:#F7A491;" d="M1131.578,1764.469c-1.296-2.517-26.06-40.562-33.755-63.071
				c-11.175-32.688-104.128-349.085-143.449-356.896c-9.853-1.958-92.182-14.502-109.902-7.685
				c-20.076,45.983-9.748,62.924-0.82,113.892c33.035-5.902,84.243-17.657,85.606-9.137
				c11.36,70.986,129.881,270.617,129.667,276.299c-0.951,25.307-15.128,41.975-15.128,41.975s106.318,50.545,108.468,39.636
				C1154.417,1788.574,1146.18,1792.828,1131.578,1764.469z"/>
			<path style="fill:#F47458;" d="M1041.865,1762.58l116.385,46.589c4.448,1.312,6.797-2.001,6.105-4.899
				c-1.423-5.966-20.161-26.425-32.794-40.078c-27.811-7.724-70.783-38.266-72.712-46.547
				C1051.816,1729.862,1039.669,1761.059,1041.865,1762.58z"/>
			<path style="fill:#F7A491;" d="M713.273,943.821c0,0-7.597,54.446-12.905,67.677c-5.308,13.231,29.179,41.527,57.875,50.115
				c28.696,8.589-8.77-29.225-7.581-43.369c1.189-14.144,6.405-81.111,6.405-81.111L713.273,943.821z"/>
			<path style="fill:#F6917B;" d="M755.617,956.338c0.838-11.078,1.449-19.206,1.449-19.206l-43.793,6.689
				c0,0-1.105,6.395-2.326,15.441C728.701,969.596,744.666,966.335,755.617,956.338z"/>
			<path style="fill:#F7A491;" d="M727.005,844.372c0,0-17.263,3.903-27.92,20.223c-10.658,16.32-17.971,64.364,17.133,86.79
				c35.104,22.425,62.405-9.297,62.857-40.237C779.528,880.207,772.92,838.916,727.005,844.372z"/>
			<path style="fill:#F7A491;" d="M787.11,901.465c-2.995,7.466-8.937,12.099-13.272,10.349c-4.334-1.751-5.42-9.222-2.425-16.688
				c2.995-7.466,8.937-12.099,13.271-10.349C789.019,886.528,790.105,893.999,787.11,901.465z"/>
			<path style="fill:#F7A491;" d="M698.525,907.602c2.545,8.044,0.216,15.963-5.202,17.689c-5.419,1.726-11.874-3.395-14.419-11.438
				c-2.545-8.043-0.216-15.962,5.203-17.688C689.524,894.438,695.98,899.559,698.525,907.602z"/>
			<path style="fill:#13375B;" d="M831.766,1314.031c-19.385-1.78-83.011-1.7-83.011-1.7l-1.41-8.785l-113.788-15.295
				c0,0-20.108,48.045-20.894,78.189c-1.376,52.729,47.152,97.17,88.658,94.62c24.704-1.517,164.56-4.578,191.859-14.702
				c5.642-42.959,12.124-89.519,41.08-120.429C887.899,1319.561,858.072,1316.445,831.766,1314.031z"/>
			<path style="fill:#F47458;" d="M1025.247,1803.154c-3.926-9.861-10.49-18.68-15.226-28.63
				c-23.159-15.641-53.768-56.442-53.22-64.452c-9.8,8.715-29.529,32.793-27.954,34.842l72.799,71.112
				c0.577,0.403,32.627,2.362,39.215-1.669C1044.046,1812.41,1032.006,1805.874,1025.247,1803.154z"/>
			<path style="fill:#F7A491;" d="M795.679,1148.301l-61.743,66.034c0,0-4.227-38.496-7.197-98.099
				c-25.151,3.413-42.276,9.65-64.136,21.823c10.541,57.001,26.591,139.868,57.745,151.368
				c24.245,8.949,82.244-97.024,82.244-97.024L795.679,1148.301z"/>
			<path style="fill:#C94C77;" d="M727.478,1052.552c-3.731-17.993-8.083-36.048-27.534-41.75
				c-12.054-3.534-25.578-0.153-35.211,7.741c-11.46,9.392-14.659,24.457-14.607,38.715c0.12,32.376,2.32,65.944,8.216,97.82
				c21.861-12.174,53.685-10.779,78.836-14.193C739.526,1112.075,732.34,1075.999,727.478,1052.552z"/>
			<path style="fill:#50BFA5;" d="M881.975,1444.618c0,0-135.801,1.933-173.952,1.969c-39.601,0.038-146.848-16.497-146.848-16.497
				c-26.614,0-59.557,30.596-59.557,57.682v14.363c0,27.086,21.575,49.044,48.189,49.044h310.623
				c26.614,0,48.189-21.958,48.189-49.044v-14.363C908.62,1460.685,908.589,1444.618,881.975,1444.618z"/>
			<path style="fill:#466EB6;" d="M893.653,1111.542v49.197c0,11.301-9.16,20.461-20.461,20.461h-17.536
				c-11.301,0-20.461-9.16-20.461-20.461v-55.437h58.458V1111.542z"/>
			<g>
				<path style="fill:#466EB6;" d="M826.616,1164.72h8.823v-10.745h-8.823c-4.171,0-7.563-4.82-7.563-10.746v-10.745
					c0-5.925,3.392-10.745,7.563-10.745h11.344v-10.746h-11.344c-8.341,0-15.126,9.641-15.126,21.491v10.745
					C811.49,1155.08,818.276,1164.72,826.616,1164.72z"/>
			</g>
			<path style="fill:#F7A491;" d="M807.359,1118.98c3.815-2.623,12.158-4.589,15.257-0.298c3.099,4.291,0.34,9.657,1.907,12.933
				c1.405,2.936,2.664,7.827,3.099,12.158c0.122,1.209,0.834,10.37,1.073,12.992c0.239,2.622-26.104,35.639-26.104,35.639
				l-20.74-25.984C781.852,1166.419,803.545,1121.602,807.359,1118.98z"/>
		</g>
		<path style="fill:#F7A491;" d="M1678.473,1144.18c0,0-40.979,130.358-53.52,138.508c-12.541,8.15-145.66,70.445-145.66,70.445
			s-15.242,11.377-18.823,12.347c-17.955,4.862-20.857,3.868-26.893,5.288c-6.036,1.418-29.411,33.583-34,37.285
			c-2.473,1.995-1.85-1.942,0.111-6.885c-3.183,4.809-6.842,9.307-9.499,9.53c-5.799,0.489,8.398-24.271,8.398-24.271
			s-21.08,30.314-14.574,13.482c0,0,13.835-40.445,36.63-47.99c22.792-7.545,27.917-10.795,35.195-13.709
			c2.115-0.847,133.93-94.165,138.219-109.098c8.423-29.327,24.019-142.226,24.019-142.226L1678.473,1144.18z"/>
		<path style="fill:#FAE0B2;" d="M1602.64,1066.534c0.97-18.342,5.193-41.936,24.792-48.393c12.145-4.001,26.173-1.772,35.996,5.721
			c11.688,8.916,25.252,27.032,26.824,41.886c3.401,32.122,2.455,61.904-3.154,93.935c-22.23-11.28-53.516-4.203-78.976-6.615
			C1608.13,1152.881,1601.357,1090.774,1602.64,1066.534z"/>
		<g>
			<path style="fill:#FFFFFF;" d="M831.781,618.631H567.329c-87.994,0-159.329-63.245-159.329-141.259l0,0
				c0-78.016,71.335-141.26,159.329-141.26h264.452c87.994,0,159.331,63.244,159.331,141.26l0,0
				C991.112,555.386,919.775,618.631,831.781,618.631z"/>
			<polygon style="fill:#FFFFFF;" points="777.49,588.825 754.141,675.86 858.427,600.313 			"/>
			<g>
				<path style="fill:#507EEF;" d="M522.26,445.04h368.59c5.621,0,10.176-4.48,10.176-10.005c0-5.525-4.555-10.005-10.176-10.005
					H522.26c-5.621,0-10.176,4.479-10.176,10.005C512.084,440.56,516.64,445.04,522.26,445.04z"/>
			</g>
			<g>
				<path style="fill:#507EEF;" d="M522.26,519.292h368.59c5.621,0,10.176-4.48,10.176-10.005c0-5.525-4.555-10.004-10.176-10.004
					H522.26c-5.621,0-10.176,4.478-10.176,10.004C512.084,514.812,516.64,519.292,522.26,519.292z"/>
			</g>
		</g>
		<g>
			<path style="fill:#FFFFFF;" d="M1425.145,733.61h197.42c65.689,0,118.943-46.257,118.943-103.315l0,0
				c0-57.06-53.253-103.316-118.943-103.316h-197.42c-65.689,0-118.944,46.256-118.944,103.316l0,0
				C1306.2,687.354,1359.455,733.61,1425.145,733.61z"/>
			<polygon style="fill:#FFFFFF;" points="1669.402,708.081 1614.949,784.729 1610.206,716.484 			"/>
			<g>
				<path style="fill:#507EEF;" d="M1662.654,606.648h-287.839c-4.39,0-7.947-3.276-7.947-7.317c0-4.041,3.557-7.317,7.947-7.317
					h287.839c4.39,0,7.947,3.276,7.947,7.317C1670.601,603.371,1667.044,606.648,1662.654,606.648z"/>
			</g>
			<g>
				<path style="fill:#507EEF;" d="M1662.654,660.955h-287.839c-4.39,0-7.947-3.277-7.947-7.318c0-4.041,3.557-7.317,7.947-7.317
					h287.839c4.39,0,7.947,3.276,7.947,7.317C1670.601,657.678,1667.044,660.955,1662.654,660.955z"/>
			</g>
		</g>
	</g>
</g>
</svg>
